<svg width="131" height="213" viewBox="0 0 131 213" fill="none" xmlns="http://www.w3.org/2000/svg">
<path d="M48.705 94.0092C46.1032 93.4019 44.018 91.1552 43.3865 88.5586C42.7551 85.9626 43.5056 83.1185 45.1587 81.0197C47.5071 78.0382 51.3167 76.6604 54.979 75.6635C64.3692 73.1089 74.1387 72.125 83.8698 72.1182C86.7276 72.1166 89.611 72.2011 92.3901 72.8682C95.1696 73.5347 97.8632 74.8264 99.7979 76.9305C101.732 79.0346 102.816 82.0193 102.237 84.8177C101.658 87.6167 99.2262 90.0502 96.3748 90.2316L48.705 94.0092Z" fill="#5B57A4"/>
<path d="M122.425 172.063C125.836 170.223 127.918 166.601 129.184 162.938C131.849 155.226 131.575 146.539 128.43 139.01L109.727 146.45L122.425 172.063Z" fill="#9E4950"/>
<path d="M112.718 147.601C118.886 145.238 124.815 142.249 130.381 138.695C129.943 135.637 128.72 133.081 127.496 130.525L110.348 137.72L112.718 147.601Z" fill="#D0286B"/>
<path d="M103.789 91.5908C105.89 92.8852 107.9 94.3248 109.794 95.8913C120.053 104.376 127.099 116.312 130.885 129.72C124.852 134.041 118.44 137.831 111.746 141.034L103.789 91.5908Z" fill="#5B57A4"/>
<path d="M85.3749 84.6602C85.3749 84.6602 82.4008 88.4525 73.8826 88.7635C65.364 89.075 62.6673 86.6048 62.6673 86.6048C58.5346 87.7874 54.4958 89.3398 50.6055 91.2252L50.9322 212.219H95.0411L95.0421 87.263C91.909 86.0662 88.6664 85.1841 85.3749 84.6602Z" fill="#D0286B"/>
<path d="M72.7062 84.5002C69.3167 84.9528 65.9608 85.6618 62.6641 86.6053C65.5197 90.1039 70.1841 92.2557 74.7259 91.8509C79.179 91.4538 83.3101 88.6139 85.3722 84.6606C81.1866 83.9946 76.9228 83.9091 72.7062 84.5002Z" fill="#9E4950"/>
<path opacity="0.15" d="M95.0421 87.2629C92.1854 86.1715 89.2369 85.345 86.2444 84.8105C85.8553 88.6228 84.905 98.4289 84.005 111.584L77.6566 105.924C77.6566 105.924 69.6508 105.769 63.3108 105.933C62.5225 96.9269 61.7841 90.2795 61.3971 86.9844C57.707 88.1135 54.0962 89.5343 50.6055 91.2261L50.9322 212.22H64.7551C66.8818 186.126 66.5115 158.928 65.3955 136.379L66.7858 134.452H72.8238L82.3735 144.061C81.6859 166.335 81.8831 191.198 84.4492 212.22H95.041L95.0421 87.2629Z" fill="#2E2854"/>
<path d="M14.8358 166.694C14.099 165.214 13.5341 163.642 13.1492 162.046C11.8936 156.846 12.3258 151.385 13.1707 146.102L37.8314 148.183L14.8358 166.694Z" fill="#9E4950"/>
<path d="M34.0155 148.774C26.2799 149.28 18.4703 148.653 10.9141 146.919C11.4223 144.007 12.0217 140.862 12.6206 137.719L35.1394 139.493L34.0155 148.774Z" fill="#D0286B"/>
<path d="M36.0701 100.354C35.2897 100.971 34.5203 101.604 33.763 102.251C22.7018 111.706 14.2598 124.193 10.0469 138.74C18.0143 140.553 26.1333 141.7 34.2911 142.165L36.0701 100.354Z" fill="#5B57A4"/>
<path d="M33.6669 122.833C31.9776 151.907 31.2266 181.036 31.4144 210.159C30.2469 210.354 61.8676 209.599 61.8676 209.599C63.4341 182.068 63.347 154.442 61.6064 126.922C61.1155 114.192 60.7689 102.203 60.4217 90.2136C60.3614 88.1111 60.1883 85.7569 58.615 84.3608C56.0693 82.102 51.8847 83.936 48.7548 82.5986L50.5987 91.2253C45.457 93.7175 40.5734 96.7897 36.0715 100.354L33.6669 122.833Z" fill="#5B57A4"/>
<path opacity="0.15" d="M61.8823 131.563C53.2871 140.989 40.2094 155.344 31.8948 164.534C31.7464 169.994 31.6336 175.454 31.5508 180.916C35.18 181.047 41.5594 179.604 49.0742 170.586C56.4265 161.764 60.4789 151.123 62.4833 144.388C62.3223 140.111 62.1236 135.836 61.8823 131.563Z" fill="#2E2854"/>
<path d="M33.6669 122.833C31.9776 151.907 31.2266 181.036 31.4144 210.159C30.2469 210.354 61.8676 209.599 61.8676 209.599C63.4341 182.068 63.3471 154.442 61.6064 126.922C61.1155 114.192 60.7689 102.203 60.4217 90.2136C60.3614 88.1111 60.1883 85.7569 58.615 84.3608C56.0693 82.102 51.8847 83.936 48.7548 82.5986" stroke="#2E2854" stroke-width="1.25966" stroke-miterlimit="10" stroke-linecap="round" stroke-linejoin="round"/>
<path d="M111.83 120.905C114.888 150.618 115.577 180.574 113.888 210.397C113.476 210.757 86.9024 210.651 86.9024 210.651C85.6201 194.221 84.8922 177.714 85.6023 161.249C86.6082 137.897 87.0781 115.646 87.1332 93.3731C87.141 90.3759 87.9387 83.6142 88.8775 82.2983C90.1834 80.467 93.2823 80.0469 96.0546 81.187L95.0419 87.2623C98.081 88.4234 101.017 89.8803 103.793 91.5905L111.83 120.905Z" fill="#5B57A4"/>
<path opacity="0.15" d="M86.043 150.068C91.3514 159.596 104.496 180.916 114.783 178.838C114.785 172.884 114.697 166.931 114.511 160.98L86.4909 136.216C86.3629 140.8 86.2124 145.418 86.043 150.068Z" fill="#2E2854"/>
<path d="M111.83 120.905C114.888 150.618 115.577 180.574 113.888 210.397C113.476 210.757 86.9024 210.651 86.9024 210.651C85.6201 194.221 84.8922 177.714 85.6023 161.249C86.6082 137.897 87.0781 115.646 87.1332 93.3731C87.141 90.3759 87.9387 83.6142 88.8775 82.2983C90.1834 80.467 93.2823 80.0469 96.0546 81.187" stroke="#2E2854" stroke-width="1.25966" stroke-miterlimit="10" stroke-linecap="round" stroke-linejoin="round"/>
<path d="M14.8398 166.693C16.505 170.04 19.0491 172.918 22.3835 174.543C27.5824 177.077 33.9927 176.184 39.0044 173.297C44.016 170.411 47.7963 165.769 50.8066 160.83C57.3974 150.017 60.7984 137.444 67.858 126.931C67.858 126.931 60.6788 120.036 59.4107 120.344C56.0196 128.702 48.6039 134.66 41.2941 139.944C33.9844 145.227 26.2393 150.473 21.611 158.215L14.8398 166.693Z" fill="#9E4950"/>
<path d="M59.4091 120.344C56.018 128.701 48.6023 134.66 41.2925 139.943C33.9827 145.226 26.2376 150.472 21.6094 158.214" stroke="#2E2854" stroke-width="1.25966" stroke-miterlimit="10" stroke-linecap="round" stroke-linejoin="round"/>
<path opacity="0.3" d="M79.9015 118.756L64.8561 129.437L30.6289 81.219L45.6748 70.5391L79.9015 118.756Z" fill="url(#paint0_linear_32552_6345)"/>
<path opacity="0.15" d="M39.6127 67.3822C35.7659 67.098 31.8661 69.4952 30.3824 73.0562C28.8982 76.6172 29.9413 81.074 32.852 83.6061C35.7622 86.1381 40.3207 86.555 43.642 84.5931C46.9634 82.6306 48.7979 78.4366 47.9845 74.6663C47.1716 70.895 43.7842 67.6906 39.6127 67.3822Z" fill="#2E2854"/>
<path d="M38.4208 66.0668C34.5739 65.7825 30.6741 68.1798 29.191 71.7408C27.7068 75.3018 28.7499 79.7586 31.6606 82.2906C34.5708 84.8227 39.1293 85.2396 42.4506 83.2771C45.772 81.3146 47.6065 77.1211 46.7931 73.3503C45.9797 69.5795 42.5922 66.3746 38.4208 66.0668Z" fill="#F7A145"/>
<path d="M37.5618 68.3135C34.6538 68.3827 31.9025 70.4611 31.0419 73.2396C30.1813 76.0176 31.2763 79.2876 33.6358 80.9884C35.9953 82.6886 39.4436 82.6928 41.8073 80.9973C44.1699 79.3017 45.2723 76.0334 44.4174 73.2538C43.5631 70.4737 40.8155 68.2364 37.5618 68.3135Z" fill="#FF8330"/>
<path opacity="0.15" d="M46.7934 73.3505C46.3429 71.2627 45.1016 69.3511 43.3772 68.0059C45.7466 70.9454 47.2492 75.4247 44.7691 79.4268C42.2218 83.538 38.5423 84.2313 36.2656 84.3876C38.3792 84.7206 40.6054 84.3671 42.4505 83.2773C45.7723 81.3148 47.6069 77.1208 46.7934 73.3505Z" fill="#2E2854"/>
<path d="M29.1933 71.7399C28.1549 74.2321 28.3573 77.1611 29.5683 79.5636C28.9059 77.6635 28.2005 74.4429 30.4336 70.9055C31.9813 68.4537 34.5437 66.8725 37.3952 66.0596C33.9008 66.2258 30.5443 68.4967 29.1933 71.7399Z" fill="#F5B878"/>
<path d="M39.8056 73.708C40.3878 73.7825 40.9395 74.0862 41.3066 74.5986L41.3774 74.6972C42.077 75.6721 41.8494 77.0315 40.8708 77.7264L40.8273 77.7573L41.2017 78.2791L40.0621 79.0884L39.6876 78.5665L39.2204 78.898L39.5948 79.4198L38.4552 80.2291L38.0807 79.7072L37.8148 79.896L37.2495 80.2972L36.435 79.1613L37.0004 78.7601L36.0217 77.3955L35.2067 76.259L34.3257 75.0302L33.7603 75.4314L32.9453 74.2949L33.5107 73.8937L33.7766 73.7049L33.3187 73.0661L34.4583 72.2569L34.9162 72.8957L35.3835 72.5642L34.9256 71.9254L36.0653 71.1162L36.5273 71.7602C37.4608 71.1791 38.7032 71.4141 39.352 72.3188L39.4191 72.4121C39.6992 72.8044 39.8224 73.2607 39.8056 73.708ZM40.2373 75.5064L40.1665 75.4078C39.9158 75.0585 39.4275 74.9772 39.0772 75.2258L38.9298 75.3302L37.1608 76.5862L38.1395 77.9508L38.3818 77.7788L40.0558 76.5904C40.4067 76.3418 40.488 75.8551 40.2373 75.5064ZM35.4648 74.221L36.3458 75.4497L38.1148 74.1937C38.429 73.9708 38.5024 73.5345 38.2779 73.2214L38.2108 73.128C37.9863 72.8149 37.5479 72.742 37.2337 72.9649L35.7065 74.0489L35.4648 74.221Z" fill="#F5B878"/>
<path opacity="0.3" d="M54.5929 140.473L40.4076 152.273L2.59375 106.814L16.7785 95.0146L54.5929 140.473Z" fill="url(#paint1_linear_32552_6345)"/>
<path opacity="0.15" d="M10.4925 92.3321C6.63522 92.3431 2.9305 95.0314 1.72322 98.6952C0.515933 102.36 1.89681 106.723 4.99264 109.025C8.08794 111.328 12.6648 111.395 15.8267 109.184C18.9886 106.973 20.4969 102.651 19.3977 98.9543C18.2974 95.2564 14.675 92.32 10.4925 92.3321Z" fill="#2E2854"/>
<path d="M9.20347 91.1104C5.34615 91.1214 1.64144 93.8097 0.434155 97.4735C-0.773128 101.138 0.607745 105.502 3.70357 107.804C6.79887 110.106 11.3757 110.173 14.5377 107.962C17.6996 105.751 19.2074 101.429 18.1081 97.7326C17.0089 94.0347 13.386 91.0983 9.20347 91.1104Z" fill="#F7A145"/>
<path d="M8.51948 93.4144C5.62504 93.7054 3.04107 95.9884 2.39548 98.8251C1.74988 101.661 3.09195 104.837 5.57417 106.353C8.05691 107.867 11.4957 107.608 13.7225 105.736C15.9488 103.865 16.7979 100.522 15.7333 97.8161C14.6681 95.1094 11.758 93.0887 8.51948 93.4144Z" fill="#FF8330"/>
<path opacity="0.15" d="M18.1056 97.7328C17.4967 95.6853 16.1127 93.8744 14.2908 92.665C16.8779 95.4147 18.7187 99.7661 16.5522 103.946C14.327 108.24 10.7109 109.212 8.45312 109.542C10.5861 109.713 12.7788 109.19 14.5346 107.962C17.6971 105.752 19.2049 101.43 18.1056 97.7328Z" fill="#2E2854"/>
<path d="M0.433132 97.4734C-0.411757 100.038 0.0146229 102.943 1.40546 105.246C0.599384 103.402 -0.349876 100.245 1.6058 96.5467C2.9615 93.9837 5.39547 92.2111 8.1761 91.1826C4.70529 91.6158 1.53238 94.1368 0.433132 97.4734Z" fill="#F5B878"/>
<path d="M11.163 98.6233C11.7493 98.6532 12.3226 98.9139 12.728 99.3964L12.8061 99.4892C13.5781 100.408 13.4554 101.781 12.5323 102.548L12.4914 102.582L12.9047 103.074L11.8301 103.968L11.4168 103.476L10.9763 103.843L11.3896 104.335L10.315 105.228L9.9017 104.736L9.65102 104.945L9.11817 105.388L8.21874 104.318L8.75159 103.875L7.67174 102.589L6.77231 101.518L5.79946 100.36L5.26662 100.803L4.36719 99.7325L4.90002 99.2894L5.15072 99.0807L4.64515 98.4791L5.71974 97.5855L6.22531 98.187L6.66585 97.8204L6.16028 97.2189L7.23488 96.3252L7.74464 96.932C8.63096 96.2817 9.88754 96.4206 10.6034 97.2729L10.6774 97.361C10.9878 97.7307 11.1457 98.176 11.163 98.6233ZM11.731 100.383L11.6528 100.291C11.3765 99.9612 10.8829 99.9177 10.5525 100.192L10.4136 100.308L8.74582 101.696L9.82566 102.982L10.0538 102.792L11.6324 101.478C11.9633 101.204 12.0074 100.712 11.731 100.383ZM6.87406 99.4672L7.84691 100.625L9.51466 99.2375C9.81098 98.991 9.85083 98.5504 9.60277 98.2557L9.52882 98.1676C9.28075 97.8723 8.83812 97.8335 8.5418 98.0795L7.10219 99.2773L6.87406 99.4672Z" fill="#F5B878"/>
<path opacity="0.3" d="M77.3546 124.128L63.0508 112.472L100.403 66.6328L114.707 78.2887L77.3546 124.128Z" fill="url(#paint2_linear_32552_6345)"/>
<path opacity="0.15" d="M116.131 71.6075C115.38 67.8241 112.03 64.7042 108.202 64.2233C104.374 63.7418 100.356 65.9351 98.6918 69.4153C97.0267 72.8951 97.8396 77.3995 100.616 80.0779C103.392 82.7563 107.924 83.4066 111.341 81.6182C114.76 79.8288 116.946 75.7098 116.131 71.6075Z" fill="#2E2854"/>
<path d="M117.084 70.1065C116.333 66.3232 112.983 63.2032 109.155 62.7223C105.327 62.2408 101.31 64.4341 99.6449 67.9143C97.9798 71.3941 98.7927 75.8986 101.57 78.5769C104.346 81.2553 108.877 81.9056 112.295 80.1172C115.713 78.3278 117.899 74.2088 117.084 70.1065Z" fill="#F7A145"/>
<path d="M114.695 69.8776C113.854 67.0932 111.117 64.9954 108.209 64.9063C105.303 64.8171 102.442 66.744 101.432 69.4711C100.422 72.1988 101.337 75.5232 103.601 77.3494C105.865 79.175 109.308 79.3664 111.76 77.8015C114.212 76.237 115.636 72.9928 114.695 69.8776Z" fill="#FF8330"/>
<path opacity="0.15" d="M112.291 80.1175C114.184 79.1268 115.695 77.4208 116.532 75.4006C114.33 78.4676 110.413 81.1098 105.895 79.7861C101.254 78.4262 99.605 75.0645 98.8477 72.9121C99.09 75.0382 100.024 77.0894 101.566 78.5772C104.343 81.2556 108.874 81.9059 112.291 80.1175Z" fill="#2E2854"/>
<path d="M109.152 62.7221C106.473 62.3854 103.704 63.3614 101.711 65.1686C103.366 64.0238 106.282 62.4861 110.286 63.6949C113.062 64.533 115.269 66.5815 116.812 69.113C115.721 65.7896 112.638 63.16 109.152 62.7221Z" fill="#F5B878"/>
<path d="M110.421 73.954L111.302 67.8525L105.504 69.9472L106.74 73.451L110.421 73.954Z" fill="#F5B878"/>
<path d="M105.037 70.5215L104.672 75.9915L109.955 74.5288L106.308 73.9839L105.037 70.5215Z" fill="#F5B878"/>
<path opacity="0.3" d="M104.454 150.521L88.6211 141.046L111.925 102.104L127.758 111.579L104.454 150.521Z" fill="url(#paint3_linear_32552_6345)"/>
<path opacity="0.15" d="M128.208 104.759C126.92 101.123 123.156 98.5184 119.299 98.5934C115.442 98.6684 111.782 101.417 110.636 105.1C109.489 108.783 110.942 113.124 114.075 115.375C117.208 117.626 121.786 117.617 124.911 115.355C128.035 113.092 129.605 108.702 128.208 104.759Z" fill="#2E2854"/>
<path d="M128.931 103.138C127.643 99.5022 123.879 96.8973 120.022 96.9723C116.165 97.0473 112.505 99.7954 111.358 103.479C110.212 107.162 111.665 111.503 114.798 113.754C117.931 116.005 122.509 115.996 125.633 113.734C128.758 111.471 130.328 107.081 128.931 103.138Z" fill="#F7A145"/>
<path d="M126.532 103.258C125.299 100.623 122.288 98.9414 119.399 99.2718C116.509 99.6022 113.956 101.921 113.349 104.765C112.742 107.609 114.126 110.768 116.63 112.249C119.133 113.729 122.568 113.423 124.769 111.522C126.969 109.621 127.912 106.205 126.532 103.258Z" fill="#FF8330"/>
<path opacity="0.15" d="M125.634 113.735C127.364 112.482 128.614 110.576 129.151 108.456C127.414 111.808 123.918 114.987 119.256 114.327C114.467 113.65 112.352 110.561 111.293 108.54C111.839 110.609 113.058 112.504 114.799 113.755C117.932 116.005 122.509 115.997 125.634 113.735Z" fill="#2E2854"/>
<path d="M120.023 96.9723C117.324 97.0247 114.724 98.3893 113.012 100.465C114.484 99.0931 117.149 97.1516 121.285 97.7721C124.153 98.2021 126.632 99.9113 128.523 102.194C126.966 99.0622 123.536 96.9041 120.023 96.9723Z" fill="#F5B878"/>
<path d="M121.958 110.185L118.202 108.018L120.145 106.224L121.439 106.554L122.134 106.011L120.754 105.661L123.941 102.718C124.046 102.62 124.027 102.448 123.902 102.376L122.597 101.623C122.514 101.576 122.41 101.589 122.342 101.655L118.759 105.155L117.503 104.837L116.81 105.375L118.177 105.723L115.461 108.376L120.89 111.508L121.992 110.529C122.102 110.433 122.084 110.258 121.958 110.185Z" fill="#F5B878"/>
<path d="M89.3884 122.102C88.7244 121.056 88.0993 119.986 87.5177 118.894C85.7692 115.61 83.6058 112.359 80.6285 110.436L79.4023 122.102H89.3884V122.102Z" fill="#9E4950"/>
<path d="M79.4137 95.9295C80.5974 106.02 81.3851 116.157 81.7743 126.309C81.8718 128.843 80.0263 131.04 77.5121 131.372C73.3123 131.927 69.0522 132.235 64.7832 132.284C62.2732 132.313 60.1386 130.445 59.845 127.952C58.6733 117.992 58.1174 107.957 57.8494 97.9366C57.7828 95.4376 59.6016 93.2821 62.0781 92.9407C65.8756 92.4172 69.7938 91.9935 74.0974 91.6122C76.7453 91.3778 79.1043 93.2894 79.4137 95.9295Z" fill="#CFCCD4"/>
<path d="M72.6337 108.602C71.2392 107.536 69.1618 107.473 67.7049 108.45C66.2475 109.428 65.5185 111.374 65.9753 113.069C66.4316 114.763 68.04 116.08 69.7907 116.192C71.5413 116.306 73.3055 115.206 73.9763 113.585C74.6465 111.964 74.2548 109.84 72.6337 108.602Z" fill="#2E2854"/>
<path d="M122.427 172.063C118.308 174.286 113.067 173.389 109.047 170.989C105.028 168.591 101.971 164.904 98.9967 161.288C91.8086 152.55 85.63 142.88 77.5923 135.184C75.355 133.042 72.6237 131.485 70.1394 129.636C69.66 129.278 69.1655 128.904 68.8849 128.376C68.6048 127.848 68.6059 127.121 69.0506 126.721C69.6186 126.212 70.5117 126.484 71.2003 126.812C72.8287 127.589 74.3722 128.542 75.8852 129.647C73.3217 127.543 70.743 125.424 68.5917 122.901C68.2456 122.495 67.9047 122.067 67.7384 121.561C67.5722 121.054 67.6131 120.448 67.9713 120.053C68.2896 119.701 68.8025 119.578 69.2745 119.629C69.746 119.679 70.1871 119.882 70.6103 120.096C73.5441 121.581 76.0609 123.757 78.6281 125.826C76.0709 123.459 73.5131 121.092 71.064 118.614C70.5238 118.067 69.9742 117.491 69.7146 116.768C69.455 116.044 69.5677 115.129 70.1803 114.666C70.6182 114.334 71.225 114.295 71.7557 114.437C72.2865 114.578 72.76 114.878 73.2195 115.178C76.1821 117.113 78.9952 119.277 81.7103 121.811C79.1987 118.929 76.6876 116.048 74.1755 113.167C73.543 112.441 72.867 111.499 73.2158 110.602C73.4995 109.874 74.3926 109.535 75.1667 109.648C75.9403 109.76 76.6153 110.219 77.2404 110.687C80.1039 112.832 82.5725 115.451 85.0253 118.056L89.3893 122.102C92.4342 126.898 96.2968 131.2 100.547 134.962C104.283 138.267 108.586 140.888 112.286 144.233C115.986 147.579 119.158 151.915 119.603 156.883L122.427 172.063Z" fill="#9E4950"/>
<path d="M77.5923 135.185C75.355 133.043 72.6237 131.486 70.1394 129.636C69.66 129.279 69.1655 128.905 68.8849 128.377C68.6048 127.849 68.6059 127.122 69.0506 126.722C69.6186 126.213 70.5117 126.485 71.2003 126.813C72.8287 127.59 74.3722 128.543 75.8852 129.648C73.3217 127.544 70.743 125.425 68.5917 122.902C68.2456 122.496 67.9047 122.068 67.7384 121.562C67.5722 121.055 67.6131 120.449 67.9713 120.054C68.2896 119.702 68.8025 119.579 69.2745 119.63C69.746 119.68 70.1871 119.883 70.6103 120.097C73.5441 121.582 76.0609 123.758 78.6281 125.827C76.0709 123.46 73.5131 121.093 71.064 118.615C70.5238 118.068 69.9742 117.492 69.7146 116.769C69.455 116.045 69.5677 115.13 70.1803 114.667C70.6182 114.335 71.225 114.296 71.7557 114.438C72.2865 114.578 72.76 114.878 73.2195 115.179C76.1821 117.114 78.9952 119.278 81.7103 121.812C79.1987 118.93 76.6876 116.049 74.1755 113.168C73.543 112.442 72.867 111.5 73.2158 110.603C73.4995 109.875 74.3926 109.536 75.1667 109.649C75.9403 109.761 76.6153 110.22 77.2404 110.688C80.1039 112.833 82.5725 115.452 85.0253 118.057" stroke="#2E2854" stroke-width="1.25966" stroke-miterlimit="10" stroke-linecap="round" stroke-linejoin="round"/>
<path d="M89.3867 122.102C92.4317 126.898 96.2942 131.2 100.545 134.962C104.28 138.267 108.584 140.887 112.284 144.233C115.984 147.578 119.155 151.915 119.6 156.883" stroke="#2E2854" stroke-width="1.25966" stroke-miterlimit="10" stroke-linecap="round" stroke-linejoin="round"/>
<path d="M68.0538 75.3389C68.0434 78.9665 68.0339 82.5941 68.0234 86.2207C68.0234 86.2207 79.9573 85.7188 79.3893 86.0172C79.0479 82.0141 78.7065 78.0109 78.364 74.0078L68.0538 75.3389Z" fill="#9E4950"/>
<path opacity="0.15" d="M78.8403 79.5706C78.6819 77.7166 78.5241 75.8627 78.3657 74.0088L68.055 75.3393C68.0508 76.7863 68.0472 78.2332 68.043 79.6802C70.7098 79.9859 74.6605 80.1962 78.8403 79.5706Z" fill="#2E2854"/>
<path d="M67.6135 20.6331C65.4123 17.5488 65.0227 13.3574 66.2536 9.77329C67.9014 4.97667 72.4997 1.27249 77.5591 0.912715C82.6185 0.552942 87.7964 3.69964 89.6021 8.43909C91.4083 13.178 89.5213 19.109 85.193 21.7538L67.6135 20.6331Z" fill="#5D56A3"/>
<path opacity="0.15" d="M65.8828 16.7533C66.2074 18.1426 66.7796 19.4668 67.6114 20.6327L85.1909 21.754C86.3085 21.0711 87.2599 20.1659 88.0303 19.1218C81.7873 14.483 72.9655 13.5505 65.8828 16.7533Z" fill="#2E2854"/>
<path d="M95.2523 53.9401C98.4122 47.4469 98.8286 39.6305 96.1859 32.9097C93.5442 26.1894 87.834 20.7026 80.9496 18.5209C74.0662 16.3386 66.1454 17.5763 60.3707 21.9125C55.7623 21.7189 51.2904 23.3804 48.3781 26.4101C45.4658 29.4399 43.9989 33.6544 43.711 37.8468C43.422 42.0393 44.2292 46.2364 45.5057 51.3425C62.4522 54.646 79.9447 57.9495 95.2523 53.9401Z" fill="#5D56A3"/>
<path d="M49.7867 49.2985C48.4599 47.5311 46.1628 46.3962 43.8101 46.3474C41.4579 46.2981 39.1116 47.336 37.7066 49.0467C36.3718 50.6725 35.9103 52.8002 36.1243 54.8225C36.4547 57.9414 38.4806 60.9795 41.6095 62.3038C44.7389 63.628 48.8852 62.9237 50.9264 60.4032L49.7867 49.2985Z" fill="#9E4950"/>
<path d="M40.0469 53.878C41.6847 52.2973 44.0133 51.4587 46.2831 51.6318" stroke="#2E2854" stroke-width="1.25966" stroke-miterlimit="10" stroke-linecap="round" stroke-linejoin="round"/>
<path d="M44.5338 56.5967C43.5924 55.2913 43.014 53.7264 42.875 52.1221" stroke="#2E2854" stroke-width="1.25966" stroke-miterlimit="10" stroke-linecap="round" stroke-linejoin="round"/>
<path d="M45.3722 61.7862C44.7193 61.5098 43.876 61.8308 43.5718 62.4711C43.2676 63.1115 43.5519 63.9674 44.1786 64.2994C44.8053 64.6313 45.6733 64.3843 46.0315 63.7723C46.3897 63.1602 46.246 62.1559 45.3722 61.7862Z" fill="#F7A145"/>
<path d="M92.8237 49.8603C94.1967 48.128 96.5221 47.0534 98.8753 47.0665C101.228 47.0786 103.547 48.1773 104.906 49.9243C106.198 51.5847 106.604 53.7234 106.337 55.7393C105.925 58.8483 103.821 61.8329 100.659 63.0748C97.496 64.3167 93.3691 63.5049 91.3945 60.9314L92.8237 49.8603Z" fill="#9E4950"/>
<path d="M102.438 54.6923C100.841 53.0697 98.5357 52.1702 96.2617 52.2841" stroke="#2E2854" stroke-width="1.25966" stroke-miterlimit="10" stroke-linecap="round" stroke-linejoin="round"/>
<path d="M97.8789 57.2918C98.8539 56.0116 99.4732 54.4624 99.6536 52.8623" stroke="#2E2854" stroke-width="1.25966" stroke-miterlimit="10" stroke-linecap="round" stroke-linejoin="round"/>
<path d="M96.9104 62.4602C97.5701 62.2006 98.4051 62.5436 98.6925 63.1918C98.9799 63.84 98.6736 64.688 98.0385 65.0032C97.4034 65.3184 96.5422 65.0488 96.1998 64.4279C95.8578 63.8075 96.0272 62.8073 96.9104 62.4602Z" fill="#F7A145"/>
<path d="M93.5628 45.8549C93.5235 51.1513 93.394 56.5122 91.9869 61.6182C90.5792 66.7248 87.7509 71.6226 83.3161 74.5187C78.5096 77.6564 72.2597 78.0964 66.7399 76.5241C60.9148 74.8658 55.7317 71.0478 52.4198 65.9764C49.1079 60.9055 47.696 54.6242 48.6458 48.4865C49.1587 46.0274 49.6958 43.5079 51.042 41.3865C52.3878 39.2652 54.7363 37.5932 57.2421 37.7778C60.0059 37.9818 62.1724 40.2868 64.8587 40.9701C67.6288 41.676 70.5306 40.5647 73.0401 39.1944C75.5496 37.8245 77.9751 36.1468 80.7794 35.5877C83.8186 34.9814 87.1152 35.8311 89.4821 37.8313C91.8484 39.8321 93.5843 42.9221 93.5628 45.8549Z" fill="#9E4950"/>
<path d="M61.4331 74.3186C62.4605 73.7632 63.3195 72.8942 63.7968 71.827C64.7083 69.7874 64.1812 67.1698 62.4631 65.6468C60.7912 64.1642 58.1495 63.9041 56.2206 65.0317C55.1129 65.6794 54.2906 66.7571 53.8789 67.9701C55.9557 70.5468 58.5392 72.7128 61.4331 74.3186Z" fill="#B35B62"/>
<path d="M89.3946 67.9027C88.9971 66.7426 88.2256 65.7084 87.182 65.0617C85.283 63.8843 82.6355 64.0752 80.9253 65.5138C79.1684 66.9917 78.5726 69.594 79.4306 71.6572C80.0526 73.1519 81.4131 74.2868 82.9617 74.7352C83.0808 74.6618 83.203 74.5941 83.32 74.5176C85.862 72.8577 87.8737 70.5396 89.3946 67.9027Z" fill="#B35B62"/>
<path d="M69.1789 51.6094C68.9607 52.749 68.7934 53.9101 68.6953 55.1138C69.632 55.161 70.5739 55.1012 71.4974 54.937" stroke="#2E2854" stroke-width="1.25966" stroke-miterlimit="10" stroke-linecap="round" stroke-linejoin="round"/>
<path d="M63.6094 61.0344C68.3924 61.3679 73.2529 60.533 77.6505 58.624" stroke="#2E2854" stroke-width="1.25966" stroke-miterlimit="10" stroke-linecap="round" stroke-linejoin="round"/>
<path d="M55.7188 50.9652C56.4991 49.8885 57.8076 49.2146 59.1371 49.2052C60.4671 49.1952 61.7856 49.8487 62.5822 50.9138" stroke="#2E2854" stroke-width="1.25966" stroke-miterlimit="10" stroke-linecap="round" stroke-linejoin="round"/>
<path d="M87.7934 50.5326C87.0408 49.436 85.7507 48.728 84.4217 48.6839C83.0928 48.6393 81.758 49.2582 80.9336 50.3023" stroke="#2E2854" stroke-width="1.25966" stroke-miterlimit="10" stroke-linecap="round" stroke-linejoin="round"/>
<path d="M67.8516 50.3466C68.7148 49.594 69.8492 49.1498 70.9972 49.1445C72.3204 49.1419 73.6305 49.7283 74.5163 50.7032" stroke="#F7A145" stroke-width="2.51931" stroke-miterlimit="10" stroke-linecap="round" stroke-linejoin="round"/>
<path d="M64.2411 43.4885C56.5023 37.5507 45.2413 48.209 52.1226 56.1723C60.2217 65.5463 74.5984 51.436 64.2411 43.4885Z" stroke="#F7A145" stroke-width="2.51931" stroke-miterlimit="10" stroke-linecap="round" stroke-linejoin="round"/>
<path d="M78.2184 42.8816C86.1093 37.1478 97.0881 48.0967 90.0012 55.8775C81.6604 65.0359 67.657 50.5554 78.2184 42.8816Z" stroke="#F7A145" stroke-width="2.51931" stroke-miterlimit="10" stroke-linecap="round" stroke-linejoin="round"/>
<defs>
<linearGradient id="paint0_linear_32552_6345" x1="72.3787" y1="124.097" x2="38.152" y2="75.879" gradientUnits="userSpaceOnUse">
<stop stop-color="#F7E6D4" stop-opacity="0"/>
<stop offset="1" stop-color="#F7E6D4" stop-opacity="0.75"/>
</linearGradient>
<linearGradient id="paint1_linear_32552_6345" x1="47.5002" y1="146.374" x2="9.68635" y2="100.914" gradientUnits="userSpaceOnUse">
<stop stop-color="#F7E6D4" stop-opacity="0"/>
<stop offset="1" stop-color="#F7E6D4" stop-opacity="0.75"/>
</linearGradient>
<linearGradient id="paint2_linear_32552_6345" x1="70.2022" y1="118.3" x2="107.555" y2="72.461" gradientUnits="userSpaceOnUse">
<stop stop-color="#F7E6D4" stop-opacity="0"/>
<stop offset="1" stop-color="#F7E6D4" stop-opacity="0.75"/>
</linearGradient>
<linearGradient id="paint3_linear_32552_6345" x1="96.538" y1="145.784" x2="119.842" y2="106.842" gradientUnits="userSpaceOnUse">
<stop stop-color="#F7E6D4" stop-opacity="0"/>
<stop offset="1" stop-color="#F7E6D4" stop-opacity="0.75"/>
</linearGradient>
</defs>
</svg>
